<mxfile host="app.diagrams.net" agent="Mozilla/5.0 (Windows NT 10.0; Win64; x64) AppleWebKit/537.36 (KHTML, like Gecko) Chrome/130.0.0.0 Safari/537.36" version="24.8.2">
  <diagram name="Страница — 1" id="UNwF7GqM9bSCczI0bzlJ">
    <mxGraphModel dx="2501" dy="728" grid="1" gridSize="10" guides="1" tooltips="1" connect="1" arrows="1" fold="1" page="1" pageScale="1" pageWidth="827" pageHeight="1169" math="0" shadow="0">
      <root>
        <mxCell id="0" />
        <mxCell id="1" parent="0" />
        <mxCell id="t6WCBX5QYmz_q7DaQl1f-10" style="edgeStyle=orthogonalEdgeStyle;rounded=0;orthogonalLoop=1;jettySize=auto;html=1;exitX=0.5;exitY=0;exitDx=0;exitDy=0;exitPerimeter=0;entryX=0.5;entryY=1;entryDx=0;entryDy=0;" edge="1" parent="1" source="t6WCBX5QYmz_q7DaQl1f-1" target="t6WCBX5QYmz_q7DaQl1f-5">
          <mxGeometry relative="1" as="geometry" />
        </mxCell>
        <mxCell id="t6WCBX5QYmz_q7DaQl1f-1" value="Пассажир" style="shape=umlActor;verticalLabelPosition=bottom;verticalAlign=top;html=1;outlineConnect=0;" vertex="1" parent="1">
          <mxGeometry x="120" y="400" width="30" height="60" as="geometry" />
        </mxCell>
        <mxCell id="t6WCBX5QYmz_q7DaQl1f-17" style="edgeStyle=orthogonalEdgeStyle;rounded=0;orthogonalLoop=1;jettySize=auto;html=1;exitX=1;exitY=1;exitDx=0;exitDy=0;entryX=1;entryY=0.5;entryDx=0;entryDy=0;" edge="1" parent="1" source="t6WCBX5QYmz_q7DaQl1f-3" target="t6WCBX5QYmz_q7DaQl1f-4">
          <mxGeometry relative="1" as="geometry" />
        </mxCell>
        <mxCell id="t6WCBX5QYmz_q7DaQl1f-3" value="" style="ellipse;whiteSpace=wrap;html=1;" vertex="1" parent="1">
          <mxGeometry x="230" y="320" width="120" height="80" as="geometry" />
        </mxCell>
        <mxCell id="t6WCBX5QYmz_q7DaQl1f-19" style="edgeStyle=orthogonalEdgeStyle;rounded=0;orthogonalLoop=1;jettySize=auto;html=1;exitX=0;exitY=0.5;exitDx=0;exitDy=0;entryX=1;entryY=0.5;entryDx=0;entryDy=0;" edge="1" parent="1" source="t6WCBX5QYmz_q7DaQl1f-4" target="t6WCBX5QYmz_q7DaQl1f-6">
          <mxGeometry relative="1" as="geometry" />
        </mxCell>
        <mxCell id="t6WCBX5QYmz_q7DaQl1f-4" value="" style="ellipse;whiteSpace=wrap;html=1;" vertex="1" parent="1">
          <mxGeometry x="240" y="480" width="120" height="80" as="geometry" />
        </mxCell>
        <mxCell id="t6WCBX5QYmz_q7DaQl1f-15" style="edgeStyle=orthogonalEdgeStyle;rounded=0;orthogonalLoop=1;jettySize=auto;html=1;exitX=1;exitY=0.5;exitDx=0;exitDy=0;entryX=0.5;entryY=0;entryDx=0;entryDy=0;" edge="1" parent="1" source="t6WCBX5QYmz_q7DaQl1f-5" target="t6WCBX5QYmz_q7DaQl1f-3">
          <mxGeometry relative="1" as="geometry" />
        </mxCell>
        <mxCell id="t6WCBX5QYmz_q7DaQl1f-5" value="" style="ellipse;whiteSpace=wrap;html=1;" vertex="1" parent="1">
          <mxGeometry x="80" y="220" width="120" height="80" as="geometry" />
        </mxCell>
        <mxCell id="t6WCBX5QYmz_q7DaQl1f-6" value="" style="ellipse;whiteSpace=wrap;html=1;" vertex="1" parent="1">
          <mxGeometry x="80" y="500" width="120" height="80" as="geometry" />
        </mxCell>
        <mxCell id="t6WCBX5QYmz_q7DaQl1f-9" style="edgeStyle=orthogonalEdgeStyle;rounded=0;orthogonalLoop=1;jettySize=auto;html=1;exitX=0.5;exitY=1;exitDx=0;exitDy=0;" edge="1" parent="1" source="t6WCBX5QYmz_q7DaQl1f-5" target="t6WCBX5QYmz_q7DaQl1f-5">
          <mxGeometry relative="1" as="geometry" />
        </mxCell>
        <mxCell id="t6WCBX5QYmz_q7DaQl1f-12" value="выбор маршрута" style="text;html=1;align=center;verticalAlign=middle;whiteSpace=wrap;rounded=0;" vertex="1" parent="1">
          <mxGeometry x="110" y="245" width="60" height="30" as="geometry" />
        </mxCell>
        <mxCell id="t6WCBX5QYmz_q7DaQl1f-13" value="покупка билетов" style="text;html=1;align=center;verticalAlign=middle;whiteSpace=wrap;rounded=0;" vertex="1" parent="1">
          <mxGeometry x="260" y="345" width="60" height="30" as="geometry" />
        </mxCell>
        <mxCell id="t6WCBX5QYmz_q7DaQl1f-14" value="получение уведомлений" style="text;html=1;align=center;verticalAlign=middle;whiteSpace=wrap;rounded=0;" vertex="1" parent="1">
          <mxGeometry x="270" y="505" width="60" height="30" as="geometry" />
        </mxCell>
        <mxCell id="t6WCBX5QYmz_q7DaQl1f-16" style="edgeStyle=orthogonalEdgeStyle;rounded=0;orthogonalLoop=1;jettySize=auto;html=1;exitX=0.5;exitY=0;exitDx=0;exitDy=0;entryX=1;entryY=0.3333333333333333;entryDx=0;entryDy=0;entryPerimeter=0;" edge="1" parent="1" source="t6WCBX5QYmz_q7DaQl1f-4" target="t6WCBX5QYmz_q7DaQl1f-1">
          <mxGeometry relative="1" as="geometry">
            <Array as="points">
              <mxPoint x="300" y="440" />
              <mxPoint x="150" y="440" />
            </Array>
          </mxGeometry>
        </mxCell>
        <mxCell id="t6WCBX5QYmz_q7DaQl1f-18" value="Проверка билета контролером" style="text;html=1;align=center;verticalAlign=middle;whiteSpace=wrap;rounded=0;" vertex="1" parent="1">
          <mxGeometry x="110" y="525" width="60" height="30" as="geometry" />
        </mxCell>
        <mxCell id="t6WCBX5QYmz_q7DaQl1f-20" value="" style="ellipse;whiteSpace=wrap;html=1;" vertex="1" parent="1">
          <mxGeometry x="-50" y="420" width="120" height="80" as="geometry" />
        </mxCell>
        <mxCell id="t6WCBX5QYmz_q7DaQl1f-21" style="edgeStyle=orthogonalEdgeStyle;rounded=0;orthogonalLoop=1;jettySize=auto;html=1;exitX=0;exitY=0.5;exitDx=0;exitDy=0;entryX=0.408;entryY=0.988;entryDx=0;entryDy=0;entryPerimeter=0;" edge="1" parent="1" source="t6WCBX5QYmz_q7DaQl1f-6" target="t6WCBX5QYmz_q7DaQl1f-20">
          <mxGeometry relative="1" as="geometry" />
        </mxCell>
        <mxCell id="t6WCBX5QYmz_q7DaQl1f-22" value="возврат билета" style="text;html=1;align=center;verticalAlign=middle;whiteSpace=wrap;rounded=0;" vertex="1" parent="1">
          <mxGeometry x="-20" y="445" width="60" height="30" as="geometry" />
        </mxCell>
        <mxCell id="t6WCBX5QYmz_q7DaQl1f-23" style="edgeStyle=orthogonalEdgeStyle;rounded=0;orthogonalLoop=1;jettySize=auto;html=1;exitX=1;exitY=0.5;exitDx=0;exitDy=0;entryX=0;entryY=0.3333333333333333;entryDx=0;entryDy=0;entryPerimeter=0;" edge="1" parent="1" source="t6WCBX5QYmz_q7DaQl1f-20" target="t6WCBX5QYmz_q7DaQl1f-1">
          <mxGeometry relative="1" as="geometry" />
        </mxCell>
        <mxCell id="t6WCBX5QYmz_q7DaQl1f-24" style="edgeStyle=orthogonalEdgeStyle;rounded=0;orthogonalLoop=1;jettySize=auto;html=1;exitX=0.5;exitY=1;exitDx=0;exitDy=0;entryX=0.75;entryY=0.1;entryDx=0;entryDy=0;entryPerimeter=0;" edge="1" parent="1" source="t6WCBX5QYmz_q7DaQl1f-3" target="t6WCBX5QYmz_q7DaQl1f-1">
          <mxGeometry relative="1" as="geometry" />
        </mxCell>
      </root>
    </mxGraphModel>
  </diagram>
</mxfile>
